<mxfile host="Electron" modified="2024-03-22T11:38:11.736Z" agent="Mozilla/5.0 (Macintosh; Intel Mac OS X 10_15_7) AppleWebKit/537.36 (KHTML, like Gecko) draw.io/24.0.4 Chrome/120.0.6099.109 Electron/28.1.0 Safari/537.36" etag="kQuXCJnB-nJiFe64uFQh" version="24.0.4" type="device">
  <diagram name="Page-1" id="hpC2bTXv6v-qC_0Z_D61">
    <mxGraphModel dx="1363" dy="1039" grid="1" gridSize="10" guides="1" tooltips="1" connect="1" arrows="1" fold="1" page="1" pageScale="1" pageWidth="1654" pageHeight="1169" math="0" shadow="0">
      <root>
        <mxCell id="0" />
        <mxCell id="1" parent="0" />
        <mxCell id="6ZgAjV2L_JMr6nDz-ZkV-1" value="Customer" style="shape=umlActor;verticalLabelPosition=bottom;verticalAlign=top;html=1;outlineConnect=0;" vertex="1" parent="1">
          <mxGeometry x="100" y="325" width="30" height="60" as="geometry" />
        </mxCell>
        <mxCell id="6ZgAjV2L_JMr6nDz-ZkV-12" style="rounded=0;orthogonalLoop=1;jettySize=auto;html=1;entryX=1;entryY=0.5;entryDx=0;entryDy=0;" edge="1" parent="1" source="6ZgAjV2L_JMr6nDz-ZkV-2" target="6ZgAjV2L_JMr6nDz-ZkV-5">
          <mxGeometry relative="1" as="geometry" />
        </mxCell>
        <mxCell id="6ZgAjV2L_JMr6nDz-ZkV-13" value="places" style="edgeLabel;html=1;align=center;verticalAlign=middle;resizable=0;points=[];" vertex="1" connectable="0" parent="6ZgAjV2L_JMr6nDz-ZkV-12">
          <mxGeometry x="-0.205" y="3" relative="1" as="geometry">
            <mxPoint x="10" y="-24" as="offset" />
          </mxGeometry>
        </mxCell>
        <mxCell id="6ZgAjV2L_JMr6nDz-ZkV-2" value="Candidate" style="shape=umlActor;verticalLabelPosition=bottom;verticalAlign=top;html=1;outlineConnect=0;" vertex="1" parent="1">
          <mxGeometry x="1100" y="355" width="30" height="60" as="geometry" />
        </mxCell>
        <mxCell id="6ZgAjV2L_JMr6nDz-ZkV-22" style="rounded=0;orthogonalLoop=1;jettySize=auto;html=1;entryX=0;entryY=0.5;entryDx=0;entryDy=0;edgeStyle=orthogonalEdgeStyle;curved=1;" edge="1" parent="1" source="6ZgAjV2L_JMr6nDz-ZkV-4" target="6ZgAjV2L_JMr6nDz-ZkV-5">
          <mxGeometry relative="1" as="geometry">
            <Array as="points">
              <mxPoint x="460" y="340" />
              <mxPoint x="460" y="213" />
            </Array>
          </mxGeometry>
        </mxCell>
        <mxCell id="6ZgAjV2L_JMr6nDz-ZkV-23" value="manages" style="edgeLabel;html=1;align=center;verticalAlign=middle;resizable=0;points=[];" vertex="1" connectable="0" parent="6ZgAjV2L_JMr6nDz-ZkV-22">
          <mxGeometry x="0.2317" y="-3" relative="1" as="geometry">
            <mxPoint x="27" y="-16" as="offset" />
          </mxGeometry>
        </mxCell>
        <mxCell id="6ZgAjV2L_JMr6nDz-ZkV-31" style="edgeStyle=orthogonalEdgeStyle;rounded=0;orthogonalLoop=1;jettySize=auto;html=1;entryX=0;entryY=0.5;entryDx=0;entryDy=0;curved=1;" edge="1" parent="1" source="6ZgAjV2L_JMr6nDz-ZkV-4" target="6ZgAjV2L_JMr6nDz-ZkV-9">
          <mxGeometry relative="1" as="geometry">
            <Array as="points">
              <mxPoint x="500" y="360" />
              <mxPoint x="500" y="483" />
            </Array>
          </mxGeometry>
        </mxCell>
        <mxCell id="6ZgAjV2L_JMr6nDz-ZkV-32" value="Rank" style="edgeLabel;html=1;align=center;verticalAlign=middle;resizable=0;points=[];" vertex="1" connectable="0" parent="6ZgAjV2L_JMr6nDz-ZkV-31">
          <mxGeometry x="0.3077" y="18" relative="1" as="geometry">
            <mxPoint x="16" y="18" as="offset" />
          </mxGeometry>
        </mxCell>
        <mxCell id="6ZgAjV2L_JMr6nDz-ZkV-4" value="Customer Manager" style="shape=umlActor;verticalLabelPosition=bottom;verticalAlign=top;html=1;outlineConnect=0;" vertex="1" parent="1">
          <mxGeometry x="310" y="325" width="30" height="60" as="geometry" />
        </mxCell>
        <mxCell id="6ZgAjV2L_JMr6nDz-ZkV-14" style="edgeStyle=orthogonalEdgeStyle;rounded=0;orthogonalLoop=1;jettySize=auto;html=1;entryX=0.5;entryY=0;entryDx=0;entryDy=0;" edge="1" parent="1" source="6ZgAjV2L_JMr6nDz-ZkV-5" target="6ZgAjV2L_JMr6nDz-ZkV-7">
          <mxGeometry relative="1" as="geometry" />
        </mxCell>
        <mxCell id="6ZgAjV2L_JMr6nDz-ZkV-5" value="Application" style="ellipse;html=1;whiteSpace=wrap;" vertex="1" parent="1">
          <mxGeometry x="717" y="190" width="110" height="45" as="geometry" />
        </mxCell>
        <mxCell id="6ZgAjV2L_JMr6nDz-ZkV-15" style="edgeStyle=orthogonalEdgeStyle;rounded=0;orthogonalLoop=1;jettySize=auto;html=1;entryX=0.5;entryY=0;entryDx=0;entryDy=0;dashed=1;" edge="1" parent="1" source="6ZgAjV2L_JMr6nDz-ZkV-7" target="6ZgAjV2L_JMr6nDz-ZkV-8">
          <mxGeometry relative="1" as="geometry" />
        </mxCell>
        <mxCell id="6ZgAjV2L_JMr6nDz-ZkV-20" style="edgeStyle=orthogonalEdgeStyle;rounded=0;orthogonalLoop=1;jettySize=auto;html=1;entryX=1;entryY=0.5;entryDx=0;entryDy=0;curved=1;" edge="1" parent="1" source="6ZgAjV2L_JMr6nDz-ZkV-7" target="6ZgAjV2L_JMr6nDz-ZkV-9">
          <mxGeometry relative="1" as="geometry">
            <Array as="points">
              <mxPoint x="860" y="303" />
              <mxPoint x="860" y="483" />
            </Array>
          </mxGeometry>
        </mxCell>
        <mxCell id="6ZgAjV2L_JMr6nDz-ZkV-7" value="Screening" style="ellipse;html=1;whiteSpace=wrap;" vertex="1" parent="1">
          <mxGeometry x="717" y="280" width="110" height="45" as="geometry" />
        </mxCell>
        <mxCell id="6ZgAjV2L_JMr6nDz-ZkV-16" style="edgeStyle=orthogonalEdgeStyle;rounded=0;orthogonalLoop=1;jettySize=auto;html=1;entryX=0.5;entryY=0;entryDx=0;entryDy=0;dashed=1;" edge="1" parent="1" source="6ZgAjV2L_JMr6nDz-ZkV-8" target="6ZgAjV2L_JMr6nDz-ZkV-9">
          <mxGeometry relative="1" as="geometry" />
        </mxCell>
        <mxCell id="6ZgAjV2L_JMr6nDz-ZkV-8" value="Interview" style="ellipse;html=1;whiteSpace=wrap;" vertex="1" parent="1">
          <mxGeometry x="717" y="370" width="110" height="45" as="geometry" />
        </mxCell>
        <mxCell id="6ZgAjV2L_JMr6nDz-ZkV-17" style="edgeStyle=orthogonalEdgeStyle;rounded=0;orthogonalLoop=1;jettySize=auto;html=1;" edge="1" parent="1" source="6ZgAjV2L_JMr6nDz-ZkV-9" target="6ZgAjV2L_JMr6nDz-ZkV-10">
          <mxGeometry relative="1" as="geometry" />
        </mxCell>
        <mxCell id="6ZgAjV2L_JMr6nDz-ZkV-9" value="Analysis" style="ellipse;html=1;whiteSpace=wrap;" vertex="1" parent="1">
          <mxGeometry x="717" y="460" width="110" height="45" as="geometry" />
        </mxCell>
        <mxCell id="6ZgAjV2L_JMr6nDz-ZkV-33" style="edgeStyle=orthogonalEdgeStyle;rounded=0;orthogonalLoop=1;jettySize=auto;html=1;elbow=vertical;curved=1;" edge="1" parent="1" source="6ZgAjV2L_JMr6nDz-ZkV-10" target="6ZgAjV2L_JMr6nDz-ZkV-2">
          <mxGeometry relative="1" as="geometry" />
        </mxCell>
        <mxCell id="6ZgAjV2L_JMr6nDz-ZkV-35" value="Notify" style="edgeLabel;html=1;align=center;verticalAlign=middle;resizable=0;points=[];" vertex="1" connectable="0" parent="6ZgAjV2L_JMr6nDz-ZkV-33">
          <mxGeometry x="0.5178" y="43" relative="1" as="geometry">
            <mxPoint x="-52" as="offset" />
          </mxGeometry>
        </mxCell>
        <mxCell id="6ZgAjV2L_JMr6nDz-ZkV-10" value="Result" style="ellipse;html=1;whiteSpace=wrap;" vertex="1" parent="1">
          <mxGeometry x="717" y="550" width="110" height="45" as="geometry" />
        </mxCell>
        <mxCell id="6ZgAjV2L_JMr6nDz-ZkV-26" style="rounded=0;orthogonalLoop=1;jettySize=auto;html=1;entryX=0;entryY=0.5;entryDx=0;entryDy=0;dashed=1;" edge="1" parent="1" source="6ZgAjV2L_JMr6nDz-ZkV-21" target="6ZgAjV2L_JMr6nDz-ZkV-7">
          <mxGeometry relative="1" as="geometry" />
        </mxCell>
        <mxCell id="6ZgAjV2L_JMr6nDz-ZkV-27" value="True/false" style="edgeLabel;html=1;align=center;verticalAlign=middle;resizable=0;points=[];" vertex="1" connectable="0" parent="6ZgAjV2L_JMr6nDz-ZkV-26">
          <mxGeometry x="-0.1407" relative="1" as="geometry">
            <mxPoint x="-6" y="-17" as="offset" />
          </mxGeometry>
        </mxCell>
        <mxCell id="6ZgAjV2L_JMr6nDz-ZkV-21" value="Requirements" style="shape=note2;boundedLbl=1;whiteSpace=wrap;html=1;size=15;verticalAlign=top;align=center;" vertex="1" parent="1">
          <mxGeometry x="510" y="290" width="100" height="50" as="geometry" />
        </mxCell>
        <mxCell id="6ZgAjV2L_JMr6nDz-ZkV-24" style="edgeStyle=orthogonalEdgeStyle;rounded=0;orthogonalLoop=1;jettySize=auto;html=1;" edge="1" parent="1" source="6ZgAjV2L_JMr6nDz-ZkV-4" target="6ZgAjV2L_JMr6nDz-ZkV-1">
          <mxGeometry relative="1" as="geometry" />
        </mxCell>
        <mxCell id="6ZgAjV2L_JMr6nDz-ZkV-25" value="Manages" style="edgeLabel;html=1;align=center;verticalAlign=middle;resizable=0;points=[];" vertex="1" connectable="0" parent="6ZgAjV2L_JMr6nDz-ZkV-24">
          <mxGeometry x="0.3957" y="3" relative="1" as="geometry">
            <mxPoint x="34" y="-18" as="offset" />
          </mxGeometry>
        </mxCell>
        <mxCell id="6ZgAjV2L_JMr6nDz-ZkV-28" value="Results" style="shape=note2;boundedLbl=1;whiteSpace=wrap;html=1;size=15;verticalAlign=top;align=center;" vertex="1" parent="1">
          <mxGeometry x="560" y="385" width="90" height="50" as="geometry" />
        </mxCell>
        <mxCell id="6ZgAjV2L_JMr6nDz-ZkV-29" style="rounded=0;orthogonalLoop=1;jettySize=auto;html=1;entryX=0.989;entryY=0.512;entryDx=0;entryDy=0;entryPerimeter=0;exitX=0;exitY=0.5;exitDx=0;exitDy=0;" edge="1" parent="1" source="6ZgAjV2L_JMr6nDz-ZkV-8" target="6ZgAjV2L_JMr6nDz-ZkV-28">
          <mxGeometry relative="1" as="geometry" />
        </mxCell>
        <mxCell id="6ZgAjV2L_JMr6nDz-ZkV-30" value="get" style="edgeLabel;html=1;align=center;verticalAlign=middle;resizable=0;points=[];" vertex="1" connectable="0" parent="6ZgAjV2L_JMr6nDz-ZkV-29">
          <mxGeometry x="0.1015" y="2" relative="1" as="geometry">
            <mxPoint x="4" y="-14" as="offset" />
          </mxGeometry>
        </mxCell>
        <mxCell id="6ZgAjV2L_JMr6nDz-ZkV-34" style="edgeStyle=orthogonalEdgeStyle;rounded=0;orthogonalLoop=1;jettySize=auto;html=1;entryX=1;entryY=1;entryDx=0;entryDy=0;entryPerimeter=0;curved=1;" edge="1" parent="1" source="6ZgAjV2L_JMr6nDz-ZkV-10" target="6ZgAjV2L_JMr6nDz-ZkV-1">
          <mxGeometry relative="1" as="geometry" />
        </mxCell>
        <mxCell id="6ZgAjV2L_JMr6nDz-ZkV-36" value="Notify" style="edgeLabel;html=1;align=center;verticalAlign=middle;resizable=0;points=[];" vertex="1" connectable="0" parent="6ZgAjV2L_JMr6nDz-ZkV-34">
          <mxGeometry x="-0.3821" y="-10" relative="1" as="geometry">
            <mxPoint x="-97" y="10" as="offset" />
          </mxGeometry>
        </mxCell>
      </root>
    </mxGraphModel>
  </diagram>
</mxfile>
